<svg width="21" height="20" viewBox="0 0 21 20" fill="none" xmlns="http://www.w3.org/2000/svg">
<path d="M13.1075 3.55005C12.942 3.84645 12.7945 4.15257 12.6658 4.46672C11.4015 4.26676 10.1135 4.26676 8.84917 4.46672C8.72049 4.15257 8.573 3.84645 8.4075 3.55005C7.21649 3.75355 6.05867 4.118 4.96583 4.63338C3.01162 7.45362 2.12536 10.8775 2.46583 14.2917C3.73936 15.2491 5.16871 15.9793 6.69083 16.45C7.03743 15.9922 7.34675 15.5073 7.61583 15C7.11923 14.817 6.64191 14.5853 6.19083 14.3084C6.31455 14.2261 6.43158 14.1341 6.54083 14.0334C7.85622 14.667 9.29747 14.996 10.7575 14.996C12.2175 14.996 13.6588 14.667 14.9742 14.0334C15.0908 14.1334 15.2075 14.225 15.3242 14.3084C14.8706 14.5831 14.3938 14.8173 13.8992 15.0084C14.1571 15.5272 14.4581 16.0234 14.7992 16.4917C16.3194 16.0226 17.7463 15.2922 19.0158 14.3334C19.3645 10.9186 18.4775 7.49187 16.5158 4.67505C15.4353 4.149 14.2889 3.77061 13.1075 3.55005ZM7.99083 12.3417C7.57382 12.3118 7.18462 12.1215 6.90493 11.8107C6.62525 11.4999 6.47683 11.0929 6.49083 10.675C6.47472 10.2566 6.62241 9.84845 6.90251 9.53722C7.18261 9.226 7.57305 9.03628 7.99083 9.00838C8.40862 9.03628 8.79905 9.226 9.07916 9.53722C9.35926 9.84845 9.50695 10.2566 9.49083 10.675C9.50695 11.0935 9.35926 11.5016 9.07916 11.8129C8.79905 12.1241 8.40862 12.3138 7.99083 12.3417ZM13.5242 12.3417C13.1072 12.3118 12.718 12.1215 12.4383 11.8107C12.1586 11.4999 12.0102 11.0929 12.0242 10.675C12.008 10.2566 12.1557 9.84845 12.4358 9.53722C12.7159 9.226 13.1064 9.03628 13.5242 9.00838C13.9427 9.03419 14.3344 9.2233 14.615 9.535C14.8955 9.84671 15.0424 10.2561 15.0242 10.675C15.0424 11.094 14.8955 11.5034 14.615 11.8151C14.3344 12.1268 13.9427 12.3159 13.5242 12.3417Z" fill="white"/>
</svg>
