<svg width="21" height="20" viewBox="0 0 21 20" fill="none" xmlns="http://www.w3.org/2000/svg">
<rect width="21" height="20" fill="#121212"/>
<g id="Home" clip-path="url(#clip0_0_1)">
<rect width="1920" height="3452" transform="translate(-368 -3287)" fill="white"/>
<g id="Ellipse 4" filter="url(#filter0_f_0_1)">
<circle cx="-160" cy="-556" r="162" fill="#E6007A"/>
</g>
<g id="Group 848">
<rect id="Rectangle 66" x="-368" y="-201" width="1920" height="366.382" fill="url(#paint0_linear_0_1)"/>
<g id="Group 847">
<g id="Group 811">
<rect id="Rectangle 366" x="-5" y="-6" width="32" height="32" rx="4" fill="white" fill-opacity="0.3"/>
<g id="ci:facebook">
<path id="Vector" d="M2.42578 10.0017C2.42625 11.9861 3.13451 13.9053 4.42325 15.4143C5.71199 16.9233 7.49671 17.9232 9.45661 18.2342V12.41H7.34245V10.0017H9.45912V8.16836C9.41238 7.73927 9.46069 7.30515 9.60063 6.89683C9.74057 6.48852 9.9687 6.11602 10.2688 5.8058C10.5689 5.49558 10.9337 5.25525 11.3371 5.10188C11.7406 4.9485 12.1729 4.88585 12.6033 4.91836C13.2283 4.92836 13.8533 4.98419 14.4699 5.08503V7.13419H13.4166C13.2376 7.11075 13.0556 7.12783 12.884 7.18418C12.7125 7.24053 12.5558 7.3347 12.4256 7.45975C12.2953 7.58479 12.1949 7.73751 12.1316 7.90661C12.0683 8.0757 12.0438 8.25686 12.0599 8.43669V10.0017H14.3691L13.9999 12.4109H12.0599V18.2342C13.633 17.9856 15.1018 17.2915 16.2926 16.234C17.4834 15.1765 18.3462 13.8 18.7789 12.2674C19.2116 10.7348 19.1961 9.11023 18.7343 7.58614C18.2724 6.06205 17.3835 4.70222 16.1728 3.66765C14.962 2.63307 13.4802 1.96708 11.9028 1.74853C10.3253 1.52998 8.71821 1.76801 7.27182 2.43445C5.82543 3.10088 4.60029 4.16782 3.74145 5.50893C2.88261 6.85003 2.42603 8.40915 2.42578 10.0017Z" fill="white"/>
</g>
</g>
</g>
</g>
</g>
<defs>
<filter id="filter0_f_0_1" x="-1122" y="-1518" width="1924" height="1924" filterUnits="userSpaceOnUse" color-interpolation-filters="sRGB">
<feFlood flood-opacity="0" result="BackgroundImageFix"/>
<feBlend mode="normal" in="SourceGraphic" in2="BackgroundImageFix" result="shape"/>
<feGaussianBlur stdDeviation="400" result="effect1_foregroundBlur_0_1"/>
</filter>
<linearGradient id="paint0_linear_0_1" x1="-841" y1="-298" x2="1792.5" y2="165" gradientUnits="userSpaceOnUse">
<stop stop-color="#131D55"/>
<stop offset="1" stop-color="#AC2E93"/>
</linearGradient>
<clipPath id="clip0_0_1">
<rect width="1920" height="3452" fill="white" transform="translate(-368 -3287)"/>
</clipPath>
</defs>
</svg>
