<svg width="16" height="14" viewBox="0 0 16 14" fill="none" xmlns="http://www.w3.org/2000/svg">
<path d="M8.5892 0.0118125C9.40717 0 10.2205 0.007 11.0328 0C11.082 0.892937 11.4261 1.8025 12.1264 2.43381C12.8253 3.08088 13.8139 3.37706 14.7758 3.47725V5.82619C13.8744 5.79862 12.9687 5.62362 12.1508 5.26137C11.7945 5.11088 11.4626 4.91706 11.1378 4.71887C11.1336 6.42338 11.1453 8.12569 11.1261 9.82319C11.0773 10.6387 10.789 11.4502 10.2809 12.1222C9.46342 13.2409 8.04452 13.9703 6.58717 13.993C5.69327 14.0407 4.8003 13.8132 4.03858 13.3941C2.77623 12.6993 1.88795 11.4275 1.75858 10.0625C1.74228 9.77341 1.73978 9.48379 1.75108 9.1945C1.86358 8.08456 2.45186 7.02275 3.36499 6.30044C4.39999 5.45913 5.84983 5.05837 7.20733 5.2955C7.21999 6.15956 7.18295 7.02275 7.18295 7.88681C6.5628 7.69956 5.83811 7.75206 5.29623 8.10337C4.89979 8.34713 4.60019 8.70577 4.44358 9.12406C4.3142 9.41981 4.35124 9.74837 4.35874 10.0625C4.50733 11.0197 5.49358 11.8243 6.54639 11.7372C7.24436 11.7302 7.91327 11.3523 8.27702 10.7988C8.39467 10.605 8.52639 10.4068 8.53342 10.1789C8.59483 9.13544 8.57045 8.09638 8.57795 7.05294C8.58311 4.70138 8.57045 2.35637 8.58967 0.01225L8.5892 0.0118125Z" fill="white"/>
</svg>
