<svg width="24" height="24" viewBox="0 0 24 24" fill="none" xmlns="http://www.w3.org/2000/svg">
<path d="M18.8168 8.06407C18.2888 8.30407 17.7608 8.44807 17.1368 8.54407C17.7128 8.16007 18.1928 7.63207 18.4328 6.96007C17.8568 7.29607 17.2328 7.53607 16.6088 7.68007C16.0808 7.10407 15.3128 6.76807 14.4968 6.76807C12.9128 6.76807 11.5688 8.06407 11.5688 9.69607C11.5688 9.93607 11.6168 10.1281 11.6648 10.3681C9.26478 10.2721 7.10478 9.07207 5.66478 7.34407C5.42478 7.68007 5.28078 8.16007 5.28078 8.68807C5.28078 9.69607 5.80878 10.6081 6.57678 11.0881C6.09678 11.0881 5.66478 10.9441 5.28078 10.7041V10.7521C5.28078 12.1441 6.28878 13.3441 7.63278 13.5841C7.39278 13.6321 7.15278 13.6801 6.86478 13.6801C6.67278 13.6801 6.48078 13.6801 6.33678 13.6321C6.72078 14.7841 7.77678 15.6481 9.07278 15.6481C8.06478 16.4161 6.81678 16.8961 5.47278 16.8961C5.23278 16.8961 4.99278 16.8961 4.80078 16.8481C5.95278 17.7601 7.48878 18.2401 9.12078 18.2401C14.4488 18.2401 17.3768 13.8241 17.3768 9.98407V9.60007C17.9528 9.16807 18.4328 8.68807 18.8168 8.06407Z" fill="white"/>
</svg>
