<svg width="25" height="24" viewBox="0 0 25 24" fill="none" xmlns="http://www.w3.org/2000/svg">
<path d="M10.9766 13C11.406 13.5741 11.9539 14.0492 12.5831 14.3929C13.2123 14.7367 13.9081 14.9411 14.6232 14.9923C15.3384 15.0435 16.0561 14.9404 16.7279 14.6898C17.3997 14.4392 18.0097 14.0471 18.5166 13.54L21.5166 10.54C22.4274 9.59699 22.9313 8.33397 22.9199 7.02299C22.9085 5.71201 22.3827 4.45794 21.4557 3.5309C20.5286 2.60386 19.2746 2.07802 17.9636 2.06663C16.6526 2.05523 15.3896 2.55921 14.4466 3.47L12.7266 5.18" stroke="#3770FF" stroke-width="2" stroke-linecap="round" stroke-linejoin="round"/>
<path d="M14.9768 11C14.5473 10.4259 13.9994 9.95083 13.3702 9.60707C12.741 9.26331 12.0453 9.05889 11.3301 9.00768C10.615 8.95646 9.89718 9.05964 9.22542 9.31023C8.55366 9.56082 7.94365 9.95294 7.43676 10.46L4.43676 13.46C3.52597 14.403 3.022 15.666 3.03339 16.977C3.04478 18.288 3.57063 19.5421 4.49767 20.4691C5.42471 21.3961 6.67877 21.922 7.98976 21.9334C9.30074 21.9448 10.5638 21.4408 11.5068 20.53L13.2168 18.82" stroke="#3770FF" stroke-width="2" stroke-linecap="round" stroke-linejoin="round"/>
</svg>
