<svg width="22" height="21" viewBox="0 0 22 21" fill="none" xmlns="http://www.w3.org/2000/svg">
<path d="M20.0618 6.07236C19.9572 5.68279 19.7521 5.32753 19.4671 5.04212C19.182 4.75672 18.827 4.55119 18.4376 4.44609C17.0041 4.06055 11.2578 4.06055 11.2578 4.06055C11.2578 4.06055 5.51152 4.06055 4.07803 4.44404C3.68842 4.54879 3.33323 4.75421 3.04814 5.03967C2.76304 5.32513 2.55807 5.68057 2.45381 6.07031C2.07031 7.50586 2.07031 10.5 2.07031 10.5C2.07031 10.5 2.07031 13.4941 2.45381 14.9276C2.66504 15.7192 3.28848 16.3427 4.07803 16.5539C5.51152 16.9395 11.2578 16.9395 11.2578 16.9395C11.2578 16.9395 17.0041 16.9395 18.4376 16.5539C19.2292 16.3427 19.8506 15.7192 20.0618 14.9276C20.4453 13.4941 20.4453 10.5 20.4453 10.5C20.4453 10.5 20.4453 7.50586 20.0618 6.07236ZM9.43262 13.248V7.75195L14.1904 10.4795L9.43262 13.248Z" fill="white"/>
</svg>
